<?xml version="1.0" standalone="no"?>
<!DOCTYPE svg PUBLIC "-//W3C//DTD SVG 20010904//EN"
 "http://www.w3.org/TR/2001/REC-SVG-20010904/DTD/svg10.dtd">
<svg version="1.0" xmlns="http://www.w3.org/2000/svg"
 width="224.000000pt" height="224.000000pt" viewBox="0 0 224.000000 224.000000"
 preserveAspectRatio="xMidYMid meet">
<metadata>
Created by potrace 1.14, written by Peter Selinger 2001-2017
</metadata>
<g transform="translate(0.000000,224.000000) scale(0.100000,-0.100000)"
fill="#000000" stroke="none">
<path d="M964 1691 c14 -16 46 -76 46 -86 0 -3 -8 0 -19 6 -10 7 -16 20 -14
29 5 17 -20 30 -57 30 -13 0 -13 -1 0 -10 11 -7 12 -10 2 -10 -20 0 -45 -27
-30 -32 11 -4 13 -45 4 -93 -1 -11 -9 -20 -17 -20 -8 0 -14 -7 -14 -15 0 -8
-7 -20 -15 -27 -13 -10 -12 -14 5 -26 23 -17 33 -14 44 16 6 16 9 17 14 5 4
-11 -8 -26 -34 -47 -27 -23 -37 -26 -32 -14 3 10 3 15 -1 12 -4 -4 -8 -15 -11
-27 -5 -27 -69 -117 -82 -117 -6 0 -15 -4 -20 -9 -5 -5 -2 -6 7 -2 8 4 6 1 -4
-8 -17 -14 -18 -16 -2 -22 9 -3 27 1 41 10 34 23 40 8 39 -107 l0 -98 -59
-115 c-48 -95 -59 -125 -61 -171 -2 -45 -7 -60 -29 -83 -16 -16 -25 -35 -22
-43 12 -31 152 -41 163 -12 3 7 -1 28 -9 46 -12 30 -12 40 2 84 20 59 27 71
64 115 16 18 32 29 36 24 5 -5 14 -45 20 -89 7 -44 17 -94 24 -112 9 -27 8
-35 -6 -51 -15 -17 -15 -18 4 -19 14 -1 19 3 15 13 -6 16 2 18 23 5 9 -6 11
-18 7 -34 -7 -30 1 -34 55 -29 32 3 39 8 39 26 0 12 -7 31 -15 42 -8 10 -14
35 -15 54 0 19 -5 81 -12 136 -10 90 -9 111 8 188 10 47 22 86 27 86 4 0 39
-16 77 -35 61 -31 140 -53 164 -47 28 8 78 -23 102 -64 22 -38 26 -56 26 -124
-1 -98 -14 -149 -47 -180 -13 -12 -22 -27 -18 -33 3 -6 1 -7 -5 -3 -6 3 -16
-2 -22 -13 -9 -18 -6 -21 30 -31 22 -6 69 -10 103 -8 l62 3 3 140 c3 131 5
144 32 203 16 35 34 62 39 60 30 -11 117 -109 139 -157 29 -62 41 -175 24
-208 -9 -16 -8 -19 10 -19 12 1 23 -5 25 -12 3 -7 -1 -10 -11 -6 -8 3 -23 1
-33 -5 -14 -7 1 -10 59 -10 46 0 83 6 94 13 17 13 17 16 0 72 -10 33 -28 86
-41 119 -12 33 -27 83 -33 110 -14 61 -17 265 -7 396 8 96 7 97 -25 158 -45
83 -177 217 -252 255 -67 33 -165 45 -221 27 -48 -16 -211 -15 -314 2 -76 12
-82 12 -69 -2z m528 -40 c11 -11 8 -12 -19 -6 -17 3 -48 3 -67 -1 -33 -6 -35
-8 -19 -20 13 -9 14 -13 4 -14 -8 0 -11 -7 -8 -19 3 -12 -3 -27 -13 -36 -17
-16 -19 -15 -22 6 -2 12 -9 24 -17 27 -10 3 -13 -2 -9 -22 3 -14 1 -26 -4 -26
-6 0 -8 -7 -4 -15 4 -10 -1 -15 -14 -15 -11 0 -20 5 -20 10 0 6 5 10 10 10 6
0 10 7 10 15 0 11 -8 13 -32 8 -22 -4 -29 -3 -24 5 4 7 14 12 23 12 9 0 13 6
10 14 -3 7 0 13 6 13 37 -1 77 17 77 35 0 18 -6 19 -82 14 -74 -5 -80 -4 -62
9 25 20 257 17 276 -4z m77 -27 c14 -12 -19 -1 -35 12 -18 14 -18 14 6 3 14
-6 27 -13 29 -15z m-389 -32 c0 -15 -2 -15 -10 -2 -13 20 -13 33 0 25 6 -3 10
-14 10 -23z m250 -1 c-6 -12 -16 -19 -21 -15 -6 4 -3 13 8 24 23 22 28 18 13
-9z m-206 10 c3 -5 -1 -11 -9 -15 -9 -3 -15 0 -15 9 0 16 16 20 24 6z m-99
-11 c-3 -5 -11 -10 -16 -10 -6 0 -7 5 -4 10 3 6 11 10 16 10 6 0 7 -4 4 -10z
m389 1 c4 -5 -3 -7 -14 -4 -23 6 -26 13 -6 13 8 0 17 -4 20 -9z m-634 -141 c0
-5 -5 -10 -11 -10 -5 0 -7 5 -4 10 3 6 8 10 11 10 2 0 4 -4 4 -10z m453 -7
c-7 -2 -21 -2 -30 0 -10 3 -4 5 12 5 17 0 24 -2 18 -5z m-434 -270 c0 -5 -4
-17 -8 -28 -5 -11 -4 -25 1 -32 6 -7 7 -21 2 -30 -9 -21 -11 -29 -14 -68 l-2
-30 -8 30 c-10 38 -12 128 -4 149 6 16 35 23 33 9z m501 -592 c0 -5 -9 -7 -20
-4 -11 3 -20 7 -20 9 0 2 9 4 20 4 11 0 20 -4 20 -9z"/>
<path d="M898 1683 c7 -3 16 -2 19 1 4 3 -2 6 -13 5 -11 0 -14 -3 -6 -6z"/>
<path d="M610 1635 c0 -8 -5 -15 -12 -15 -6 0 -9 -2 -6 -5 8 -9 36 5 42 21 3
8 -1 14 -9 14 -8 0 -15 -7 -15 -15z"/>
<path d="M699 1637 c-8 -7 -18 -20 -22 -30 -5 -13 -11 -16 -24 -9 -10 4 -34 6
-53 3 -29 -5 -34 -10 -32 -28 2 -12 -5 -27 -16 -35 -16 -11 -17 -15 -6 -26 11
-10 15 -8 24 8 6 11 17 20 25 20 8 0 15 5 15 10 0 6 7 10 15 10 12 0 11 -7 -4
-42 -10 -24 -24 -42 -31 -40 -7 1 -23 -4 -36 -13 -14 -9 -25 -11 -29 -5 -10
16 -45 11 -52 -7 -4 -10 -12 -22 -19 -28 -7 -5 -14 -19 -16 -30 -2 -11 -10
-19 -19 -17 -17 2 -45 -70 -34 -87 3 -5 0 -11 -7 -13 -10 -4 -9 -11 2 -34 19
-38 24 -52 12 -36 -7 11 -10 11 -15 -2 -8 -21 19 -21 39 -1 9 8 22 15 31 15
24 0 -6 -40 -48 -65 l-35 -20 12 -83 c7 -45 15 -142 19 -215 8 -157 19 -214
47 -244 21 -23 55 -33 43 -13 -3 6 1 13 10 16 14 6 12 8 -7 18 l-23 12 4 262
c4 281 8 324 31 328 8 1 33 9 55 17 22 8 45 12 52 10 16 -6 93 35 94 50 2 19
2 20 -6 46 -5 16 -4 21 4 17 6 -4 11 -1 12 6 0 7 3 36 5 63 3 32 1 45 -5 36
-5 -8 -7 -24 -5 -37 2 -12 0 -26 -6 -29 -29 -18 1 176 32 207 36 36 8 66 -33
35z m-225 -242 c-4 -8 -8 -15 -10 -15 -2 0 -4 7 -4 15 0 8 4 15 10 15 5 0 7
-7 4 -15z m6 -46 c-7 -11 -9 -32 -6 -45 5 -18 2 -24 -9 -24 -9 0 -20 -11 -25
-24 -5 -13 -14 -27 -20 -31 -9 -6 -9 -2 -1 14 10 18 9 21 -6 21 -17 1 -17 1
-1 11 10 5 23 30 29 54 9 34 16 45 31 45 16 0 17 -3 8 -21z m-50 -4 c0 -8 -4
-15 -10 -15 -5 0 -7 7 -4 15 4 8 8 15 10 15 2 0 4 -7 4 -15z m147 -21 c-3 -3
-12 -4 -19 -1 -8 3 -5 6 6 6 11 1 17 -2 13 -5z m-107 -58 c0 -3 -4 -8 -10 -11
-5 -3 -10 -1 -10 4 0 6 5 11 10 11 6 0 10 -2 10 -4z"/>
<path d="M570 1630 c-9 -6 -10 -10 -3 -10 6 0 15 5 18 10 8 12 4 12 -15 0z"/>
<path d="M490 1534 c0 -20 17 -26 24 -8 8 21 8 21 -9 21 -8 0 -15 -6 -15 -13z"/>
<path d="M726 1325 c-3 -9 -6 -22 -5 -28 0 -7 5 -1 10 12 5 13 8 26 5 28 -2 2
-6 -3 -10 -12z"/>
<path d="M920 570 c-12 -8 -10 -10 8 -10 13 0 20 4 17 10 -7 12 -6 12 -25 0z"/>
</g>
</svg>
